<svg width="426" height="101" viewBox="0 0 426 101" fill="none" xmlns="http://www.w3.org/2000/svg">
<g clip-path="url(#clip0_733_155)">
<mask id="mask0_733_155" style="mask-type:luminance" maskUnits="userSpaceOnUse" x="19" y="0" width="388" height="100">
<path d="M406.198 0.468506H19.8008V99.9074H406.198V0.468506Z" fill="white"/>
</mask>
<g mask="url(#mask0_733_155)">
<path d="M63.4837 82.5995H63.7953V34.5498C63.7953 27.7319 58.2529 22.1812 51.4308 22.1812C44.6088 22.1812 39.0664 27.7277 39.0664 34.5498V82.5995H41.9705V34.5498C41.9705 29.3273 46.2167 25.0854 51.4308 25.0854C56.645 25.0854 60.8912 29.3314 60.8912 34.5498V82.5995H63.4837Z" fill="white" stroke="white" stroke-width="0.623208"/>
<path d="M73.4505 89.861V32.385V32.0733C73.4505 19.925 63.5747 10.0409 51.4304 10.0409C39.2862 10.0409 29.4062 19.925 29.4062 32.0733V90.1727H32.3104V32.0733C32.3104 21.5287 40.8858 12.945 51.4263 12.945C61.9668 12.945 70.5422 21.5287 70.5422 32.0733V90.1727H73.4463V89.861H73.4505Z" fill="white" stroke="white" stroke-width="0.623208"/>
<path d="M82.753 99.2846V32.4307V32.1191C82.7572 14.8396 68.7059 0.780029 51.4348 0.780029C34.1636 0.780029 20.1123 14.8396 20.1123 32.1191V99.5956H23.0165V32.1191C23.0165 16.4433 35.7631 3.68834 51.4348 3.68834C67.1063 3.68834 79.8488 16.4433 79.8488 32.1191V99.5956H82.753V99.2846Z" fill="white" stroke="white" stroke-width="0.623208"/>
<path d="M183.031 85.4489V14.9269H188.661V47.4458H229.49V14.9269H235.169V85.4535H229.49V52.9342H188.661V85.4535H183.031V85.4489Z" fill="white"/>
<path d="M261.598 85.4489V14.9269H266.837L295.721 77.3183L324.305 14.9269H329.739V85.3534H324.206V27.9062L297.968 85.4535H293.369L267.082 27.9062V85.4535H261.598V85.4489Z" fill="white"/>
<path d="M356.172 85.4489V14.9269H382.754C383.439 14.9269 384.178 14.9518 384.981 15.0016C385.783 15.0515 386.622 15.1554 387.502 15.3216C391.025 15.8783 394.054 17.1414 396.58 19.1148C399.11 21.0883 401.042 23.5729 402.38 26.5601C403.719 29.5473 404.387 32.8379 404.387 36.4275C404.387 41.6209 403 46.1413 400.224 49.9927C397.448 53.8483 393.584 56.2954 388.624 57.3382L387.008 57.9739H361.797V85.4489H356.167H356.172ZM361.801 52.4398H382.654C383.243 52.4398 383.917 52.4066 384.686 52.3442C385.454 52.2778 386.227 52.1822 387.012 52.0493C389.559 51.5258 391.678 50.4912 393.377 48.9416C395.072 47.3918 396.348 45.5222 397.195 43.3327C398.043 41.1473 398.471 38.8414 398.471 36.4275C398.471 34.0137 398.047 31.7202 397.195 29.5473C396.348 27.3744 395.076 25.5172 393.377 23.9633C391.678 22.4137 389.559 21.375 387.012 20.8556C386.231 20.6936 385.454 20.5773 384.686 20.5108C383.917 20.4444 383.239 20.4111 382.654 20.4111H361.801V52.4398ZM399.593 85.4489L385.691 56.7482L390.926 54.1059L406.199 85.4489H399.593Z" fill="white"/>
<path d="M161.548 85.3827L161.39 85.4328H155.461L134.376 19.1732C134.019 18.0514 133.071 17.9268 132.672 17.9268H132.664C132.27 17.9268 131.314 18.0556 130.965 19.1857L110.557 85.4328H104.558L104.479 85.4081L125.406 17.4739C126.407 14.2333 129.245 12.1268 132.635 12.1102H132.677C136.051 12.1102 138.893 14.1875 139.919 17.4075L161.548 85.3827Z" fill="white"/>
</g>
</g>
<defs>
<clipPath id="clip0_733_155">
<rect width="386.397" height="100.063" fill="white" transform="translate(19.8008 0.468506)"/>
</clipPath>
</defs>
</svg>
