<svg width="426" height="101" viewBox="0 0 426 101" fill="none" xmlns="http://www.w3.org/2000/svg">
<g clip-path="url(#clip0_733_157)">
<mask id="mask0_733_157" style="mask-type:luminance" maskUnits="userSpaceOnUse" x="20" y="0" width="387" height="100">
<path d="M406.532 0.468506H20.1348V99.9074H406.532V0.468506Z" fill="white"/>
</mask>
<g mask="url(#mask0_733_157)">
<path d="M63.8177 82.5987H64.1293V34.5496C64.1293 27.7318 58.5869 22.181 51.7648 22.181C44.9428 22.181 39.4004 27.7276 39.4004 34.5496V82.5987H42.3045V34.5496C42.3045 29.3272 46.5507 25.0852 51.7648 25.0852C56.979 25.0852 61.2251 29.3313 61.2251 34.5496V82.5987H63.8177Z" fill="black" stroke="black" stroke-width="0.623208"/>
<path d="M73.7845 89.861V32.385V32.0733C73.7845 19.925 63.9087 10.0409 51.7644 10.0409C39.6202 10.0409 29.7402 19.925 29.7402 32.0733V90.1727H32.6444V32.0733C32.6444 21.5287 41.2198 12.945 51.7603 12.945C62.3008 12.945 70.8762 21.5287 70.8762 32.0733V90.1727H73.7803V89.861H73.7845Z" fill="black" stroke="black" stroke-width="0.623208"/>
<path d="M83.087 99.2846V32.4308V32.1192C83.0912 14.8397 69.0399 0.780151 51.7687 0.780151C34.4975 0.780151 20.4463 14.8397 20.4463 32.1192V99.5964H23.3504V32.1192C23.3504 16.4434 36.0971 3.68846 51.7687 3.68846C67.4403 3.68846 80.1828 16.4434 80.1828 32.1192V99.5964H83.087V99.2846Z" fill="black" stroke="black" stroke-width="0.623208"/>
<path d="M183.365 85.449V14.9269H188.995V47.4458H229.824V14.9269H235.503V85.4536H229.824V52.9342H188.995V85.4536H183.365V85.449Z" fill="black"/>
<path d="M261.932 85.449V14.9269H267.171L296.055 77.3183L324.639 14.9269H330.073V85.3535H324.54V27.9062L298.302 85.4536H293.703L267.416 27.9062V85.4536H261.932V85.449Z" fill="black"/>
<path d="M356.506 85.449V14.9269H383.088C383.773 14.9269 384.512 14.9517 385.315 15.0016C386.117 15.0515 386.956 15.1553 387.836 15.3215C391.359 15.8782 394.388 17.1413 396.914 19.1148C399.444 21.0883 401.376 23.5728 402.714 26.5601C404.053 29.5473 404.721 32.8379 404.721 36.4275C404.721 41.6209 403.334 46.1413 400.558 49.9927C397.782 53.8483 393.918 56.2954 388.958 57.3382L387.342 57.9739H362.131V85.449H356.501H356.506ZM362.135 52.4398H382.988C383.577 52.4398 384.251 52.4066 385.02 52.3442C385.788 52.2777 386.561 52.1822 387.346 52.0493C389.893 51.5258 392.012 50.4912 393.711 48.9416C395.406 47.3918 396.682 45.5222 397.529 43.3326C398.377 41.1473 398.805 38.8414 398.805 36.4275C398.805 34.0136 398.381 31.7202 397.529 29.5473C396.682 27.3744 395.41 25.5172 393.711 23.9633C392.012 22.4137 389.893 21.3749 387.346 20.8556C386.565 20.6936 385.788 20.5773 385.02 20.5108C384.251 20.4443 383.573 20.4111 382.988 20.4111H362.135V52.4398ZM399.927 85.449L386.025 56.7482L391.26 54.1059L406.533 85.449H399.927Z" fill="black"/>
<path d="M161.882 85.3829L161.724 85.4329H155.795L134.71 19.1732C134.353 18.0514 133.405 17.9267 133.006 17.9267H132.998C132.604 17.9267 131.648 18.0555 131.299 19.1856L110.891 85.4329H104.892L104.812 85.4075L125.74 17.4739C126.741 14.2332 129.579 12.1267 132.969 12.1101H133.011C136.385 12.1101 139.227 14.1875 140.253 17.4074L161.882 85.3829Z" fill="black"/>
</g>
</g>
<defs>
<clipPath id="clip0_733_157">
<rect width="386.397" height="100.063" fill="white" transform="translate(20.1348 0.468506)"/>
</clipPath>
</defs>
</svg>
