<svg width="426" height="101" viewBox="0 0 426 101" fill="none" xmlns="http://www.w3.org/2000/svg">
<g clip-path="url(#clip0_7_333)">
<mask id="mask0_7_333" style="mask-type:luminance" maskUnits="userSpaceOnUse" x="19" y="0" width="387" height="100">
<path d="M405.865 0.468506H19.4678V99.9074H405.865V0.468506Z" fill="white"/>
</mask>
<g mask="url(#mask0_7_333)">
<path d="M63.1507 82.5987H63.4623V34.5496C63.4623 27.7318 57.9199 22.181 51.0978 22.181C44.2758 22.181 38.7334 27.7276 38.7334 34.5496V82.5987H41.6375V34.5496C41.6375 29.3272 45.8837 25.0852 51.0978 25.0852C56.312 25.0852 60.5582 29.3313 60.5582 34.5496V82.5987H63.1507Z" fill="#A67638" stroke="#A67638" stroke-width="0.623208"/>
<path d="M73.1175 89.861V32.385V32.0733C73.1175 19.925 63.2417 10.0409 51.0974 10.0409C38.9532 10.0409 29.0732 19.925 29.0732 32.0733V90.1727H31.9774V32.0733C31.9774 21.5287 40.5528 12.945 51.0933 12.945C61.6338 12.945 70.2092 21.5287 70.2092 32.0733V90.1727H73.1133V89.861H73.1175Z" fill="#A67638" stroke="#A67638" stroke-width="0.623208"/>
<path d="M82.42 99.2846V32.4308V32.1192C82.4242 14.8397 68.3729 0.780151 51.1018 0.780151C33.8306 0.780151 19.7793 14.8397 19.7793 32.1192V99.5964H22.6834V32.1192C22.6834 16.4434 35.4301 3.68846 51.1018 3.68846C66.7733 3.68846 79.5158 16.4434 79.5158 32.1192V99.5964H82.42V99.2846Z" fill="#A67638" stroke="#A67638" stroke-width="0.623208"/>
<path d="M182.698 85.449V14.9269H188.328V47.4458H229.157V14.9269H234.836V85.4536H229.157V52.9342H188.328V85.4536H182.698V85.449Z" fill="#1A4855"/>
<path d="M261.265 85.449V14.9269H266.504L295.388 77.3183L323.972 14.9269H329.406V85.3535H323.873V27.9062L297.635 85.4536H293.036L266.749 27.9062V85.4536H261.265V85.449Z" fill="#1A4855"/>
<path d="M355.839 85.449V14.9269H382.421C383.106 14.9269 383.845 14.9517 384.648 15.0016C385.45 15.0515 386.289 15.1553 387.169 15.3215C390.692 15.8782 393.721 17.1413 396.247 19.1148C398.777 21.0883 400.709 23.5728 402.047 26.5601C403.386 29.5473 404.054 32.8379 404.054 36.4275C404.054 41.6209 402.667 46.1413 399.891 49.9927C397.115 53.8483 393.251 56.2954 388.291 57.3382L386.675 57.9739H361.464V85.449H355.834H355.839ZM361.468 52.4398H382.321C382.91 52.4398 383.584 52.4066 384.353 52.3442C385.121 52.2777 385.894 52.1822 386.679 52.0493C389.226 51.5258 391.345 50.4912 393.044 48.9416C394.739 47.3918 396.015 45.5222 396.862 43.3326C397.71 41.1473 398.138 38.8414 398.138 36.4275C398.138 34.0136 397.714 31.7202 396.862 29.5473C396.015 27.3744 394.743 25.5172 393.044 23.9633C391.345 22.4137 389.226 21.3749 386.679 20.8556C385.898 20.6936 385.121 20.5773 384.353 20.5108C383.584 20.4443 382.906 20.4111 382.321 20.4111H361.468V52.4398ZM399.26 85.449L385.358 56.7482L390.593 54.1059L405.866 85.449H399.26Z" fill="#1A4855"/>
<path d="M161.215 85.3827L161.057 85.4328H155.128L134.043 19.1731C133.686 18.0513 132.738 17.9266 132.339 17.9266H132.331C131.937 17.9266 130.981 18.0554 130.632 19.1854L110.224 85.4328H104.225L104.146 85.4074L125.073 17.4738C126.074 14.2331 128.912 12.1266 132.302 12.11H132.344C135.718 12.11 138.56 14.1874 139.586 17.4072L161.215 85.3827Z" fill="#1A4855"/>
</g>
</g>
<defs>
<clipPath id="clip0_7_333">
<rect width="386.397" height="100.063" fill="white" transform="translate(19.4678 0.468506)"/>
</clipPath>
</defs>
</svg>
