<svg width="24" height="24" viewBox="0 0 24 24" fill="none" xmlns="http://www.w3.org/2000/svg">
<g clip-path="url(#clip0_43_351)">
<path d="M18.2064 1.10156C17.3393 1.84219 16.6455 2.27344 15.3283 2.88281C14.3205 3.35156 13.8096 3.675 13.4252 4.09219C13.083 4.4625 12.8721 4.80938 12.6752 5.33438C12.2814 6.39375 12.4127 7.44375 13.0596 8.35313L13.2143 8.57344L13.008 9.01406C12.8908 9.25781 12.7971 9.48281 12.7971 9.52031C12.7971 9.55313 12.6705 9.375 12.5205 9.12656C12.2627 8.70938 11.8877 8.20313 11.4611 7.70625L11.3018 7.51875L11.4143 7.23281C11.8455 6.17344 11.6018 5.03906 10.7768 4.20938C10.4299 3.8625 10.3783 3.82969 9.41269 3.35625C8.30644 2.8125 7.77676 2.48438 7.17207 1.97813C6.7502 1.61719 6.59551 1.56563 6.38926 1.71094C6.16895 1.86563 6.02832 2.68594 6.02832 3.82031C6.02832 4.73906 6.0752 5.13281 6.28145 5.93906C6.66113 7.42031 7.28926 8.23125 8.33926 8.61094C9.10801 8.89219 10.083 8.76094 10.6033 8.30156L10.7721 8.15156L11.0627 8.49375C11.4658 8.97188 11.9064 9.64688 12.1643 10.1766L12.3799 10.6266L12.3049 10.9266C12.2627 11.0906 12.1877 11.4 12.1408 11.6156C12.0143 12.1875 12.1033 12.375 12.4877 12.375C12.7174 12.375 12.8252 12.2531 12.8908 11.9203C12.9705 11.5078 13.158 10.7906 13.2611 10.4906C13.3736 10.1672 13.7814 9.1875 13.8096 9.1875C13.8189 9.1875 13.9596 9.25781 14.1189 9.34688C14.5268 9.57188 14.9018 9.65625 15.4549 9.65625C17.2127 9.65625 18.4596 8.50313 19.0736 6.31875C19.3596 5.29688 19.4299 4.73906 19.4299 3.46875C19.4299 2.475 19.4158 2.24063 19.3221 1.71563C19.1627 0.843752 19.1111 0.750002 18.7971 0.750002C18.6424 0.750002 18.5627 0.796877 18.2064 1.10156ZM18.6377 3.07031C18.7033 4.79063 18.3096 6.62344 17.658 7.60313C17.1143 8.41875 16.3502 8.85938 15.4877 8.85938C14.9346 8.85938 14.2502 8.61563 14.2502 8.41875C14.2502 8.34375 14.7189 7.65938 15.1268 7.12969C15.4455 6.72188 16.3268 5.81719 16.8658 5.33906C17.1189 5.11406 17.1564 5.0625 17.1564 4.91719C17.1564 4.69688 16.9924 4.5375 16.7627 4.5375C16.5471 4.5375 16.1393 4.85625 15.3986 5.60156C14.8174 6.18281 14.3814 6.70781 13.9549 7.34531L13.6643 7.78125L13.5846 7.67344C13.4627 7.51875 13.3221 7.12031 13.2658 6.78281C13.1205 5.86875 13.7393 4.66875 14.6346 4.13438C14.7799 4.05 15.258 3.81094 15.6986 3.60938C16.1393 3.40313 16.6736 3.14063 16.8846 3.01875C17.3158 2.775 18.1221 2.23594 18.3752 2.025L18.5393 1.88438L18.5721 2.07656C18.5908 2.18438 18.6189 2.62969 18.6377 3.07031ZM8.16582 3.64219C8.30176 3.7125 8.69551 3.9 9.03769 4.06406C10.0549 4.54219 10.383 4.82813 10.6689 5.46563C10.8564 5.8875 10.8799 6.59531 10.7158 6.825C10.6549 6.9 10.6314 6.89063 10.3314 6.62344C9.89082 6.24375 9.31894 5.81719 8.82676 5.50781C8.36738 5.21719 8.13769 5.175 7.96894 5.34375C7.86113 5.45156 7.84238 5.75156 7.93613 5.86406C7.96426 5.90156 8.26894 6.11719 8.60176 6.34219C9.17363 6.72188 10.1721 7.51406 10.1721 7.58438C10.1721 7.64531 9.84863 7.8375 9.62832 7.90313C9.00488 8.09063 8.30644 7.86094 7.79551 7.29375C7.39707 6.85781 7.06426 5.97656 6.88613 4.89844C6.8252 4.5375 6.80645 3.14531 6.85801 2.94375L6.89082 2.81719L7.40644 3.16406C7.68769 3.35625 8.02988 3.57188 8.16582 3.64219Z" fill="#5A0C0D"/>
<path d="M21.1123 10.3313C20.9811 10.3641 20.7748 10.4438 20.6576 10.5141C20.5451 10.5844 19.7998 11.2734 19.0123 12.0516L17.5779 13.4625L17.3717 13.2328C17.2311 13.0781 17.0623 12.9563 16.8795 12.8719L16.5982 12.7453L12.3654 12.7594L8.13262 12.7734L7.71074 12.9047C7.17168 13.0688 6.58106 13.35 6.19199 13.6266C6.02324 13.7484 5.40918 14.3156 4.82793 14.8922L3.76856 15.9375L3.49199 15.6563C3.24356 15.4031 3.19199 15.375 3.02324 15.375C2.84043 15.375 2.80293 15.4078 1.79043 16.3922L0.745117 17.4141L0.749805 17.6203C0.749805 17.8172 0.768555 17.8453 1.20918 18.2813C1.45762 18.5297 2.69043 19.7531 3.94199 20.9906L6.22012 23.25H6.42168C6.62793 23.25 6.63262 23.2453 7.65918 22.2188C8.66699 21.2203 8.69512 21.1875 8.69512 21C8.69512 20.8359 8.66231 20.7797 8.41387 20.5313L8.13731 20.25L8.50762 19.875L8.88262 19.5H12.0561C15.5248 19.5 15.5295 19.5 16.2561 19.2188C17.0154 18.9281 17.1561 18.8016 20.1701 15.8016C23.3436 12.6375 23.217 12.7969 23.2404 12.0703C23.2545 11.7234 23.2404 11.6016 23.1514 11.3672C23.0061 10.9781 22.5842 10.5563 22.1998 10.4109C21.8529 10.2797 21.4264 10.2516 21.1123 10.3313ZM21.8014 11.1141C22.3498 11.2969 22.617 11.9156 22.3639 12.4125C22.2607 12.6188 16.9123 17.9063 16.5795 18.1359C16.2842 18.3375 15.8248 18.5438 15.4545 18.6422C15.2014 18.7078 14.7467 18.7219 11.8404 18.7359L8.51699 18.7547L8.05293 19.1859C7.79981 19.425 7.57481 19.6172 7.55137 19.6172C7.53262 19.6172 6.80137 18.9141 5.92481 18.0563L4.33574 16.4953L5.34356 15.5063C6.61856 14.2594 6.92324 14.0297 7.66387 13.7672C8.36231 13.5234 8.35762 13.5234 12.5389 13.5234H16.4295L16.6076 13.6359C16.8045 13.7578 16.9686 14.0344 16.9686 14.25C16.9686 14.4656 16.8045 14.7422 16.6076 14.8641L16.4295 14.9766L13.3967 14.9906L10.3639 15.0047L10.2654 15.1266C10.1436 15.2813 10.1436 15.4688 10.2701 15.6281L10.3639 15.75H13.4904H16.617L16.8982 15.6188C17.3107 15.4219 17.5967 15.0797 17.7139 14.6484C17.7561 14.4891 18.0139 14.2078 19.4154 12.8156C21.0982 11.1469 21.1732 11.0813 21.5201 11.0672C21.5857 11.0625 21.7123 11.0859 21.8014 11.1141ZM7.06856 21.6422L6.42637 22.2844L5.82637 21.7125C5.49824 21.4031 4.43418 20.3531 3.46856 19.3875L1.71074 17.625L2.36699 16.9688L3.02324 16.3125L5.36699 18.6563L7.71074 21L7.06856 21.6422Z" fill="#5A0C0D"/>
</g>
<defs>
<clipPath id="clip0_43_351">
<rect width="24" height="24" fill="white"/>
</clipPath>
</defs>
</svg>
