<svg width="24" height="24" viewBox="0 0 24 24" fill="none" xmlns="http://www.w3.org/2000/svg">
<path d="M2.02969 1.94521C1.56094 2.09052 1.13906 2.47021 0.9 2.95302L0.773438 3.21084V10.1249V17.039L0.909375 17.3202C1.0875 17.6811 1.44375 18.0374 1.80469 18.2155L2.08594 18.3515L5.37656 18.3655L8.67188 18.3796L8.08125 19.5374C7.52344 20.6343 7.49063 20.7093 7.49063 20.9765C7.48594 21.4499 7.72969 21.8483 8.13281 22.0358C8.31094 22.1202 8.51719 22.1249 11.9906 22.1249C16.0125 22.1249 15.8063 22.139 16.1484 21.839C16.3969 21.6186 16.5 21.3749 16.5 20.9858C16.5 20.6718 16.4953 20.6577 15.9141 19.5233L15.3234 18.3796L18.6188 18.3655L21.9141 18.3515L22.1953 18.2155C22.5563 18.0374 22.9125 17.6811 23.0906 17.3202L23.2266 17.039V10.1249V3.21084L23.0906 2.92959C22.9125 2.56865 22.5563 2.2124 22.1953 2.03427L21.9141 1.89834L12.0703 1.88896C3.98906 1.88427 2.18906 1.89365 2.02969 1.94521ZM13.125 8.9999V15.3749H7.3125H1.5L1.50938 9.45459C1.52344 3.87177 1.52813 3.52958 1.60781 3.35146C1.76719 2.99521 2.07656 2.74677 2.45156 2.67177C2.55938 2.65302 5.00625 2.63427 7.88906 2.62959L13.125 2.6249V8.9999ZM21.7969 2.74677C22.05 2.86865 22.2797 3.09834 22.3922 3.35146C22.4719 3.52958 22.4766 3.87177 22.4906 9.45459L22.5 15.3749H18.1875H13.875V8.9999V2.62021L17.7328 2.63427C21.5484 2.64834 21.5859 2.64834 21.7969 2.74677ZM22.4813 16.439C22.4391 16.8421 22.3266 17.0905 22.0922 17.3015C21.7359 17.6249 22.5 17.6015 12 17.6015C1.5 17.6015 2.26406 17.6249 1.90781 17.3015C1.67344 17.0905 1.56094 16.8421 1.51875 16.439L1.48594 16.1249H12H22.5141L22.4813 16.439ZM15.0609 19.6358C15.4125 20.3249 15.7031 20.939 15.7031 20.9952C15.7031 21.1593 15.6234 21.2671 15.4641 21.3233C15.3609 21.3608 14.2969 21.3749 11.9906 21.3749C8.34375 21.3749 8.40469 21.3796 8.30625 21.103C8.26875 20.9952 8.27344 20.9343 8.32969 20.8311C8.36719 20.7561 8.6625 20.1749 8.98594 19.5327L9.57188 18.3749H11.9953H14.4141L15.0609 19.6358Z" fill="#5A0C0D"/>
<path d="M2.9625 3.84375C2.87812 3.89531 2.77031 4.00312 2.71875 4.0875C2.62969 4.2375 2.625 4.33125 2.625 6.375C2.625 8.41875 2.62969 8.5125 2.71875 8.6625C2.77031 8.74687 2.87812 8.85469 2.9625 8.90625C3.1125 9 3.21094 9 7.5 9C11.7891 9 11.8875 9 12.0375 8.90625C12.1219 8.85469 12.2297 8.74687 12.2812 8.6625C12.3703 8.5125 12.375 8.41875 12.375 6.375C12.375 4.33125 12.3703 4.2375 12.2812 4.0875C12.2297 4.00312 12.1219 3.89531 12.0375 3.84375C11.8875 3.75 11.7891 3.75 7.5 3.75C3.21094 3.75 3.1125 3.75 2.9625 3.84375ZM11.625 6.375V8.25H7.5H3.375V6.375V4.5H7.5H11.625V6.375Z" fill="#5A0C0D"/>
<path d="M2.9625 9.84375C2.87813 9.89531 2.77031 10.0031 2.71875 10.0875C2.62969 10.2328 2.625 10.3266 2.625 12C2.625 13.6734 2.62969 13.7672 2.71875 13.9125C2.77031 13.9969 2.87813 14.1047 2.9625 14.1562C3.10781 14.2453 3.20156 14.25 4.875 14.25C6.54844 14.25 6.64219 14.2453 6.7875 14.1562C6.87188 14.1047 6.97969 13.9969 7.03125 13.9125C7.12031 13.7672 7.125 13.6734 7.125 12C7.125 10.3266 7.12031 10.2328 7.03125 10.0875C6.97969 10.0031 6.87188 9.89531 6.7875 9.84375C6.64219 9.75469 6.54844 9.75 4.875 9.75C3.20156 9.75 3.10781 9.75469 2.9625 9.84375ZM6.375 12V13.5H4.875H3.375V12V10.5H4.875H6.375V12Z" fill="#5A0C0D"/>
<path d="M8.2125 9.84375C8.12813 9.89531 8.02031 10.0031 7.96875 10.0875C7.87969 10.2328 7.875 10.3266 7.875 12C7.875 13.6734 7.87969 13.7672 7.96875 13.9125C8.02031 13.9969 8.12813 14.1047 8.2125 14.1562C8.35781 14.2453 8.45156 14.25 10.125 14.25C11.7984 14.25 11.8922 14.2453 12.0375 14.1562C12.1219 14.1047 12.2297 13.9969 12.2812 13.9125C12.3703 13.7672 12.375 13.6734 12.375 12C12.375 10.3266 12.3703 10.2328 12.2812 10.0875C12.2297 10.0031 12.1219 9.89531 12.0375 9.84375C11.8922 9.75469 11.7984 9.75 10.125 9.75C8.45156 9.75 8.35781 9.75469 8.2125 9.84375ZM11.625 12V13.5H10.125H8.625V12V10.5H10.125H11.625V12Z" fill="#5A0C0D"/>
<path d="M15.8811 4.18125C15.7733 4.27031 14.6717 5.75156 14.6295 5.87344C14.6061 5.92969 14.6061 6.03281 14.6249 6.09844C14.6624 6.225 15.7452 7.70625 15.8811 7.81406C15.9233 7.84688 16.0358 7.875 16.1342 7.875C16.3733 7.875 16.4999 7.74375 16.4999 7.50938C16.4999 7.35469 16.4295 7.2375 16.003 6.66563L15.5061 6L16.003 5.33438C16.4295 4.7625 16.4999 4.64531 16.4999 4.49063C16.4999 4.25625 16.3733 4.125 16.1342 4.125C16.0358 4.125 15.9233 4.15313 15.8811 4.18125Z" fill="#5A0C0D"/>
<path d="M18.1031 4.20938C18.0047 4.30781 17.25 7.24219 17.25 7.52344C17.25 7.74844 17.3859 7.875 17.625 7.875C17.7422 7.875 17.8453 7.84219 17.8969 7.79063C17.9953 7.69219 18.75 4.75781 18.75 4.47656C18.75 4.25156 18.6141 4.125 18.375 4.125C18.2578 4.125 18.1547 4.15781 18.1031 4.20938Z" fill="#5A0C0D"/>
<path d="M19.5937 4.21875C19.5328 4.27969 19.5 4.37344 19.5 4.49062C19.5 4.64531 19.5703 4.7625 19.9969 5.33437L20.4937 6L19.9969 6.66562C19.5703 7.2375 19.5 7.35469 19.5 7.50937C19.5 7.74375 19.6266 7.875 19.8656 7.875C19.9641 7.875 20.0766 7.84687 20.1187 7.81406C20.2547 7.70625 21.3375 6.225 21.375 6.09844C21.3937 6.03281 21.3937 5.92969 21.3703 5.87344C21.3281 5.75156 20.2266 4.27031 20.1187 4.18125C20.0016 4.09219 19.7016 4.11094 19.5937 4.21875Z" fill="#5A0C0D"/>
<path d="M15.0938 9.84375C15.0328 9.90469 15 9.99844 15 10.125C15 10.2516 15.0328 10.3453 15.0938 10.4062C15.1875 10.5 15.2484 10.5 18.1875 10.5C21.1266 10.5 21.1875 10.5 21.2813 10.4062C21.3422 10.3453 21.375 10.2516 21.375 10.125C21.375 9.99844 21.3422 9.90469 21.2813 9.84375C21.1875 9.75 21.1266 9.75 18.1875 9.75C15.2484 9.75 15.1875 9.75 15.0938 9.84375Z" fill="#5A0C0D"/>
<path d="M15.0938 11.7188C15.0328 11.7797 15 11.8734 15 12C15 12.1266 15.0328 12.2203 15.0938 12.2812C15.1875 12.375 15.2484 12.375 18.1875 12.375C21.1266 12.375 21.1875 12.375 21.2813 12.2812C21.3422 12.2203 21.375 12.1266 21.375 12C21.375 11.8734 21.3422 11.7797 21.2813 11.7188C21.1875 11.625 21.1266 11.625 18.1875 11.625C15.2484 11.625 15.1875 11.625 15.0938 11.7188Z" fill="#5A0C0D"/>
<path d="M15.0938 13.5938C15.0328 13.6547 15 13.7484 15 13.875C15 14.0016 15.0328 14.0953 15.0938 14.1562C15.1875 14.25 15.2484 14.25 18.1875 14.25C21.1266 14.25 21.1875 14.25 21.2813 14.1562C21.3422 14.0953 21.375 14.0016 21.375 13.875C21.375 13.7484 21.3422 13.6547 21.2813 13.5938C21.1875 13.5 21.1266 13.5 18.1875 13.5C15.2484 13.5 15.1875 13.5 15.0938 13.5938Z" fill="#5A0C0D"/>
</svg>
