<svg width="24" height="24" viewBox="0 0 24 24" fill="none" xmlns="http://www.w3.org/2000/svg">
<g clip-path="url(#clip0_43_326)">
<path d="M11.6622 0.520449C11.0294 0.586073 10.7669 0.722012 9.65592 1.54701C9.1778 1.89857 8.73717 2.22201 8.67155 2.2642C8.38561 2.43764 8.08561 2.4892 6.93717 2.55951C6.30436 2.59701 5.66217 2.65795 5.50748 2.69545C5.0153 2.82201 4.64967 3.03295 4.26061 3.41732C3.75905 3.91889 3.63717 4.19545 3.30436 5.6017C3.13561 6.32357 2.99498 6.81107 2.9153 6.96107C2.83561 7.10639 2.5778 7.39701 2.22623 7.73451C0.79186 9.10326 0.618422 9.32357 0.444985 10.0079C0.365298 10.3314 0.351235 11.0158 0.426235 11.3345C0.45436 11.4564 0.726235 12.0704 1.03561 12.7033C1.41061 13.4767 1.61217 13.9408 1.64498 14.1236C1.68248 14.3486 1.66842 14.5736 1.5653 15.4126C1.49498 15.9705 1.43873 16.5986 1.43873 16.8048C1.43873 17.6814 1.86061 18.5158 2.54967 19.008C2.73248 19.1345 3.24342 19.3876 3.8903 19.6642C4.46686 19.9126 5.03873 20.1892 5.1653 20.283C5.34811 20.4142 5.53561 20.6626 6.05123 21.4408C6.41686 21.9845 6.81061 22.533 6.9278 22.6595C7.5278 23.283 8.34342 23.5783 9.21998 23.4798C9.40748 23.4611 10.0309 23.3017 10.6028 23.1236C11.9997 22.697 11.9997 22.697 13.3872 23.1236C14.545 23.4751 14.9294 23.5408 15.4309 23.4798C15.834 23.4283 16.0122 23.3767 16.3684 23.1986C16.8465 22.9548 17.1794 22.5892 17.92 21.4736C18.459 20.6673 18.6512 20.4142 18.834 20.283C18.9606 20.1892 19.5137 19.9173 20.0669 19.683C20.62 19.4486 21.2106 19.1626 21.3887 19.0455C21.8997 18.708 22.3169 18.1173 22.4762 17.4986C22.5794 17.1095 22.5653 16.4908 22.4247 15.3845C22.3309 14.5923 22.3169 14.3626 22.3544 14.133C22.3872 13.9314 22.5653 13.5189 22.9637 12.7033C23.2731 12.0704 23.545 11.4564 23.5731 11.3345C23.6481 11.0158 23.634 10.3267 23.5544 10.0079C23.3715 9.30951 23.1981 9.0892 21.7497 7.71107C21.4169 7.39232 21.1637 7.10639 21.084 6.96107C21.0044 6.81107 20.8637 6.32357 20.695 5.6017C20.3622 4.19545 20.2403 3.91889 19.7387 3.41732C19.3497 3.03295 18.9887 2.82201 18.4919 2.69545C18.3325 2.65795 17.6903 2.59232 17.0575 2.55951C15.9137 2.4892 15.6137 2.43764 15.3278 2.2642C15.2622 2.22201 14.8215 1.89857 14.3434 1.54701C13.8653 1.19076 13.3637 0.848574 13.2278 0.778261C12.7778 0.553261 12.234 0.464199 11.6622 0.520449ZM12.2997 1.31732C12.7309 1.39701 12.909 1.49545 13.8747 2.21264C14.8497 2.9392 15.1215 3.09857 15.5481 3.21107C15.6981 3.24857 16.3403 3.3142 16.9965 3.3517C17.9294 3.40326 18.234 3.44076 18.4169 3.51107C18.984 3.7267 19.3215 4.0267 19.5512 4.51889C19.6215 4.67826 19.7903 5.26889 19.9262 5.83607C20.0575 6.40326 20.2075 6.97045 20.259 7.09701C20.4231 7.51889 20.6762 7.82357 21.5106 8.61107C22.4012 9.45014 22.5887 9.67045 22.7387 10.0736C22.8606 10.4017 22.87 10.9408 22.7575 11.2736C22.7106 11.4001 22.4575 11.9392 22.195 12.4689C21.6887 13.472 21.5856 13.7486 21.5387 14.1939C21.5153 14.4189 21.5997 15.3283 21.7684 16.6642C21.7965 16.8845 21.7075 17.3439 21.5856 17.6111C21.4544 17.9017 21.1028 18.2908 20.8356 18.4455C20.7325 18.5064 20.2309 18.7361 19.72 18.9564C19.2137 19.172 18.6934 19.4111 18.5715 19.4814C18.1637 19.7205 17.9059 20.0205 17.2309 21.047C16.3919 22.3126 16.1669 22.5236 15.4684 22.6689C15.0231 22.7626 14.9059 22.7392 13.6169 22.3455C12.5481 22.022 12.534 22.0173 11.9997 22.0173C11.4653 22.0173 11.4512 22.022 10.3825 22.3455C9.09342 22.7392 8.97623 22.7626 8.53092 22.6689C7.83248 22.5236 7.60748 22.3126 6.77311 21.047C6.09342 20.0205 5.8403 19.7251 5.4278 19.4814C5.30592 19.4111 4.78561 19.172 4.27936 18.9564C3.76842 18.7361 3.26686 18.5064 3.16373 18.4455C2.89655 18.2908 2.54498 17.9017 2.41373 17.6111C2.2028 17.1564 2.19811 16.9267 2.3528 15.633C2.54498 13.983 2.53561 13.9173 1.80436 12.4689C1.54186 11.9392 1.28873 11.4001 1.24186 11.2736C1.12936 10.9408 1.13873 10.4017 1.26061 10.0736C1.41061 9.67045 1.59811 9.45014 2.48873 8.61107C3.32311 7.82357 3.57623 7.51889 3.7403 7.09701C3.79186 6.97045 3.94186 6.40326 4.07311 5.83607C4.20905 5.26889 4.3778 4.67826 4.44811 4.51889C4.6778 4.0267 5.0153 3.7267 5.58248 3.51107C5.76998 3.44076 6.06998 3.40795 6.99811 3.3517C8.71373 3.25326 8.74655 3.24389 10.1247 2.21264C11.0856 1.49545 11.2075 1.42514 11.6247 1.33139C11.9575 1.25639 11.9809 1.25639 12.2997 1.31732Z" fill="#5A0C0D"/>
<path d="M10.9593 4.38301C7.68738 4.82833 5.09519 7.28926 4.44363 10.5611C4.30301 11.269 4.29363 12.633 4.42488 13.3361C5.13269 17.1518 8.47957 19.8424 12.3046 19.6736C14.2968 19.5846 16.0452 18.8205 17.4327 17.433C19.4811 15.3846 20.203 12.3611 19.3077 9.60958C18.1593 6.09395 14.6296 3.88145 10.9593 4.38301ZM13.3686 5.2502C14.6999 5.53145 15.8718 6.16895 16.8514 7.14864C17.8358 8.13301 18.4639 9.28614 18.7593 10.6549C18.9046 11.344 18.9046 12.6565 18.7593 13.3455C18.4639 14.7143 17.8358 15.8674 16.8514 16.8518C15.8671 17.8361 14.7139 18.4643 13.3452 18.7596C12.6561 18.9049 11.3436 18.9049 10.6546 18.7596C9.28582 18.4643 8.13269 17.8361 7.14832 16.8518C6.16394 15.8674 5.53582 14.7143 5.24051 13.3455C5.09519 12.6565 5.09519 11.344 5.24051 10.6549C5.53582 9.28614 6.16394 8.13301 7.14832 7.14864C8.25457 6.04239 9.59988 5.37208 11.1561 5.15645C11.6436 5.09083 12.8483 5.1377 13.3686 5.2502Z" fill="#5A0C0D"/>
<path d="M14.9203 8.53135C14.4938 8.62041 14.3906 8.70478 12.7266 10.3876L11.0859 12.0517L10.3828 11.3438C9.52031 10.472 9.37969 10.3876 8.8125 10.3876C8.475 10.3876 8.38125 10.4063 8.17969 10.5095C7.65469 10.786 7.41094 11.1938 7.40625 11.7892C7.40625 12.3985 7.43438 12.4407 8.95781 13.9548C10.4578 15.4454 10.5094 15.4829 11.0859 15.4829C11.4938 15.4829 11.8313 15.347 12.1453 15.0423C12.2672 14.9298 13.2609 13.9267 14.3578 12.8157C16.5984 10.5517 16.5938 10.561 16.5938 9.95635C16.5938 9.53916 16.4953 9.24853 16.2609 8.98135C15.9422 8.61572 15.3938 8.4376 14.9203 8.53135ZM15.5203 9.4126C15.6984 9.51103 15.7969 9.70791 15.7969 9.96103V10.1767L14.325 11.686C12.0188 14.0485 11.4328 14.6204 11.2641 14.6673C10.9313 14.7657 10.8422 14.7001 9.54844 13.4157C8.88281 12.7501 8.30625 12.1548 8.26875 12.0845C8.02969 11.6298 8.43281 11.0813 8.93906 11.1798C9.08906 11.2079 9.25313 11.3485 10.0125 12.1032C10.8609 12.9423 10.9219 12.9938 11.0906 12.9938C11.2547 12.9938 11.3391 12.9188 13.0734 11.1845C14.2875 9.97041 14.9297 9.36103 15.0234 9.33291C15.1875 9.28603 15.3469 9.30947 15.5203 9.4126Z" fill="#5A0C0D"/>
</g>
<defs>
<clipPath id="clip0_43_326">
<rect width="24" height="24" fill="white"/>
</clipPath>
</defs>
</svg>
