<svg width="24" height="24" viewBox="0 0 24 24" fill="none" xmlns="http://www.w3.org/2000/svg">
<path d="M11.6247 1.34063C11.3387 1.4625 11.2028 1.64531 10.7997 2.44688C10.495 3.06094 10.3825 3.23906 10.3028 3.25781C10.2419 3.26719 9.88092 3.32344 9.49185 3.375C9.10748 3.42656 8.69967 3.50625 8.59185 3.54375C8.20748 3.68438 7.90748 4.20938 7.99185 4.60313C8.05748 4.89375 8.16529 5.03906 8.77935 5.65781L9.3981 6.28125L9.26217 7.06406C9.18717 7.5 9.12623 7.95469 9.13092 8.07656C9.14029 8.57813 9.56685 8.97656 10.0919 8.97656C10.3403 8.97656 10.4294 8.94375 11.184 8.55469L12.0044 8.13281L12.2481 8.26406C13.3872 8.87813 13.6122 8.97656 13.8747 8.97188C14.3434 8.97188 14.6997 8.69063 14.8122 8.24531C14.859 8.0625 14.8497 7.90781 14.7465 7.24219C14.6809 6.81094 14.6247 6.4125 14.6247 6.35625C14.6247 6.29063 14.8262 6.05625 15.2153 5.67188C15.8903 5.00156 15.9981 4.82813 15.9981 4.44375C15.9981 4.22813 15.9747 4.12969 15.8622 3.95156C15.6465 3.6 15.4778 3.53438 14.4653 3.38906L13.5934 3.2625L13.2137 2.48906C13.0075 2.05781 12.7825 1.65 12.7122 1.575C12.445 1.28906 11.9762 1.19063 11.6247 1.34063ZM12.5762 3.0375C12.8247 3.525 13.0731 3.96094 13.12 4.00313C13.1856 4.06406 13.4715 4.125 14.1887 4.22813C14.7231 4.30313 15.1825 4.3875 15.2106 4.41094C15.2387 4.43906 14.9762 4.72969 14.5169 5.19375C13.9356 5.78438 13.7809 5.9625 13.7809 6.06094C13.7809 6.13125 13.8559 6.60469 13.945 7.11094C14.034 7.61719 14.109 8.03906 14.109 8.04844C14.109 8.10469 13.8981 8.00625 13.1575 7.61719C12.5715 7.30781 12.2669 7.17188 12.1544 7.17188C12.0465 7.17188 11.7325 7.30781 11.1419 7.61719C10.6731 7.86094 10.2747 8.0625 10.2559 8.0625C10.1997 8.0625 10.209 7.98281 10.3825 7.00313C10.5278 6.19219 10.5372 6.07031 10.4809 5.93906C10.4481 5.85469 10.1247 5.50313 9.76842 5.15625C9.40748 4.80938 9.0981 4.48594 9.07935 4.44375C9.04185 4.34063 9.01373 4.35 10.0919 4.19531C10.5512 4.12969 10.9684 4.05938 11.0153 4.03125C11.0669 4.00313 11.32 3.57188 11.5778 3.07031C11.8403 2.56875 12.07 2.15625 12.084 2.15625C12.1028 2.15625 12.3231 2.55469 12.5762 3.0375Z" fill="#5A0C0D"/>
<path d="M4.20898 4.91715C4.0168 5.03903 3.96055 5.1234 3.65117 5.73278L3.30898 6.40778L2.58242 6.5109C2.18398 6.56715 1.8043 6.64215 1.73867 6.67965C1.57461 6.76403 1.37773 6.97965 1.3168 7.13903C1.25117 7.30778 1.25117 7.64528 1.3168 7.81403C1.34023 7.88434 1.61211 8.1984 1.92148 8.50778L2.47461 9.07028L2.36211 9.65622C2.22148 10.4203 2.2168 10.7062 2.35742 10.9312C2.5543 11.2547 2.90117 11.4281 3.24805 11.3718C3.35586 11.3531 3.72617 11.189 4.07773 11.0062L4.71523 10.6687L5.37148 11.0156C5.97148 11.339 6.04648 11.3625 6.30898 11.3672C6.54336 11.3672 6.62773 11.3437 6.78711 11.2359C7.03086 11.0765 7.17148 10.8093 7.17148 10.514C7.17148 10.3922 7.11992 10.0125 7.05898 9.67965L6.94648 9.07028L7.49961 8.50778C7.80898 8.1984 8.08086 7.88434 8.10898 7.81403C8.19336 7.57965 8.16523 7.2234 8.04336 7.01247C7.86992 6.71247 7.67305 6.63278 6.83867 6.5109L6.10742 6.40778L5.80742 5.7984C5.64336 5.46559 5.46992 5.13747 5.42305 5.07653C5.17461 4.75778 4.58398 4.67809 4.20898 4.91715ZM5.08555 6.42184C5.28711 6.82497 5.4793 7.15309 5.54023 7.19059C5.60117 7.22809 5.86836 7.29372 6.14023 7.3359C6.41211 7.3734 6.76367 7.43434 6.92773 7.45778L7.21836 7.50934L6.67461 8.02965C6.36992 8.32028 6.09805 8.62028 6.06523 8.70465C6.00898 8.8359 6.01367 8.9484 6.12148 9.60934C6.18711 10.0265 6.2293 10.3781 6.21523 10.3922C6.20586 10.4062 5.88711 10.2562 5.51211 10.0593C5.13711 9.86247 4.78086 9.70309 4.71992 9.70309C4.6543 9.70309 4.28398 9.86247 3.89492 10.0547C3.4543 10.2703 3.18711 10.3828 3.18711 10.3406C3.18711 10.3078 3.25273 9.96559 3.32773 9.5859C3.40742 9.20153 3.4543 8.84528 3.44023 8.79372C3.42148 8.73747 3.14492 8.42809 2.82148 8.09997C2.49805 7.77184 2.24023 7.49528 2.2543 7.4859C2.26367 7.47653 2.61055 7.42028 3.02305 7.36403C3.43555 7.30778 3.81992 7.22809 3.87617 7.19528C3.92773 7.15778 4.13867 6.8109 4.34023 6.42184C4.54648 6.03747 4.71523 5.71872 4.71992 5.71872C4.7293 5.71872 4.89336 6.03278 5.08555 6.42184Z" fill="#5A0C0D"/>
<path d="M18.8668 4.86094C18.6183 4.99219 18.5433 5.09063 18.2152 5.75625L17.8918 6.40781L17.1605 6.51094C16.3261 6.63281 16.1293 6.7125 15.9558 7.0125C15.8246 7.23281 15.8058 7.59844 15.9089 7.84219C15.9464 7.92656 16.2136 8.23125 16.5089 8.52188L17.0433 9.05156L16.9355 9.64688C16.7527 10.6547 16.8089 10.9734 17.2121 11.2359C17.3714 11.3438 17.4558 11.3672 17.6902 11.3672C17.9527 11.3625 18.0277 11.3391 18.6277 11.0156L19.2839 10.6688L19.9402 11.0156C20.5261 11.325 20.6293 11.3625 20.8589 11.3672C21.3605 11.3672 21.7027 11.0625 21.7355 10.5797C21.7496 10.4391 21.7074 10.0688 21.6371 9.70313L21.5152 9.07031L22.0543 8.53125C22.7339 7.84688 22.8464 7.58438 22.6589 7.13438C22.4902 6.72188 22.2793 6.62344 21.2761 6.4875L20.6902 6.40781L20.348 5.73281C20.0386 5.12344 19.9824 5.03906 19.7902 4.91719C19.6121 4.80469 19.5277 4.78125 19.2933 4.78125C19.1246 4.78594 18.9464 4.81406 18.8668 4.86094ZM20.1183 7.19063C20.1793 7.22813 20.5214 7.30313 20.8824 7.35938C21.2433 7.41563 21.5902 7.47188 21.6511 7.48594C21.7496 7.50938 21.7074 7.56563 21.1964 8.08125C20.8871 8.39063 20.6199 8.69531 20.6011 8.75625C20.5871 8.8125 20.6246 9.20156 20.6949 9.61406C20.7605 10.0313 20.8074 10.3781 20.7933 10.3922C20.7839 10.4063 20.4605 10.2563 20.0855 10.0594C19.7058 9.8625 19.3449 9.70313 19.2839 9.70313C19.223 9.70313 18.8527 9.8625 18.4683 10.0547C18.0839 10.2469 17.7605 10.4063 17.7511 10.4063C17.7371 10.4063 17.7886 10.1156 17.8636 9.75938C18.0793 8.71406 18.1027 8.80781 17.4043 8.10469C17.0761 7.77188 16.8183 7.49531 16.8324 7.48594C16.8418 7.47656 17.1886 7.42031 17.6011 7.36406C18.0136 7.30781 18.398 7.22813 18.4589 7.19063C18.5199 7.14844 18.7168 6.81563 18.9277 6.39844L19.2886 5.67188L19.6496 6.39844C19.8605 6.81563 20.0574 7.15313 20.1183 7.19063Z" fill="#5A0C0D"/>
<path d="M11.4838 9.9375C11.0666 10.1297 10.8978 10.3781 10.7384 11.0063C10.3822 12.3891 9.75876 13.5047 8.75095 14.5594L8.33376 15L8.14626 14.8359C7.85563 14.5875 7.62126 14.5313 6.91813 14.5313C6.40251 14.5313 6.27126 14.55 6.09313 14.6297C5.83532 14.7469 5.55876 15.0047 5.42282 15.2578C5.3197 15.4453 5.3197 15.4688 5.30564 18.5344C5.29157 21.975 5.28689 21.8813 5.60564 22.2609C5.69938 22.3688 5.8822 22.5141 6.01813 22.5844C6.23376 22.6969 6.31345 22.7109 6.86657 22.725C7.61188 22.7484 7.88845 22.6641 8.22595 22.3266L8.43688 22.1156L8.83063 22.2844C9.74938 22.6781 10.1994 22.7344 12.5525 22.7344C14.7181 22.7344 14.8541 22.7156 15.5056 22.4016C16.3916 21.975 17.1134 20.9578 17.4369 19.6875C17.5916 19.0875 17.6338 18.4688 17.615 17.1047C17.6009 15.8813 17.5916 15.8063 17.4884 15.5391C17.3338 15.1594 16.9494 14.775 16.5697 14.6203C16.2978 14.5125 16.2322 14.5078 14.7838 14.4844L13.2838 14.4609L13.5838 13.4766C13.8697 12.5484 13.8838 12.4641 13.8884 12.0234C13.8884 11.4844 13.7994 11.1797 13.5181 10.7578C13.04 10.0313 12.0978 9.65625 11.4838 9.9375ZM12.2994 10.9172C12.5572 11.0531 12.8056 11.3578 12.89 11.6484C13.0025 12.0094 12.9556 12.2531 12.5384 13.6406C12.2713 14.5266 12.1447 15.0188 12.1634 15.0984C12.1775 15.1688 12.2431 15.2719 12.3088 15.3328L12.4306 15.4453L14.2869 15.4688L16.1478 15.4922L16.3072 15.6047C16.6025 15.8156 16.6306 15.9516 16.6634 17.3672C16.6916 18.4219 16.6869 18.7031 16.6213 19.0594C16.4244 20.1938 15.8619 21.1641 15.1728 21.5578C14.6759 21.8391 14.5588 21.8531 12.29 21.8297C10.3681 21.8156 10.2181 21.8063 9.88532 21.7125C9.50563 21.6047 9.3322 21.5391 8.87282 21.3234L8.57751 21.1875V18.5719V15.9609L9.12126 15.4219C9.76345 14.7844 10.1103 14.3719 10.4619 13.8281C10.9541 13.0734 11.3009 12.2813 11.5588 11.3203C11.7228 10.6969 11.8072 10.65 12.2994 10.9172ZM7.55095 15.5578L7.68688 15.6938V18.6047V21.5156L7.55095 21.6656L7.41501 21.8203H6.93688H6.45876L6.32282 21.6656L6.18688 21.5109L6.19626 18.5813L6.21032 15.6469L6.34157 15.5344C6.46345 15.4313 6.51501 15.4219 6.94157 15.4219C7.40095 15.4219 7.41501 15.4266 7.55095 15.5578Z" fill="#5A0C0D"/>
</svg>
