<svg width="422" height="58" viewBox="0 0 422 58" fill="none" xmlns="http://www.w3.org/2000/svg">
<g clip-path="url(#clip0_45_705)">
<path d="M91.1761 48.2706C82.6438 54.5073 70.2769 57.8349 59.6292 57.8349C44.6995 57.8349 31.2588 52.3587 21.0905 43.2508C20.2916 42.5346 21.0074 41.5585 21.9661 42.1163C32.9397 48.4481 46.5082 52.2573 60.524 52.2573C69.9765 52.2573 80.375 50.3178 89.9362 46.2931C91.3806 45.6847 92.5885 47.2312 91.1761 48.2706Z" fill="#FF9900"/>
<path d="M94.7231 44.2458C93.6365 42.8641 87.5138 43.593 84.7656 43.9162C83.9284 44.0176 83.8005 43.2951 84.5547 42.7754C89.4312 39.3718 97.4329 40.3542 98.366 41.4951C99.2991 42.6423 98.1232 50.5966 93.5407 54.3932C92.8377 54.9763 92.1666 54.6657 92.4798 53.8925C93.5087 51.3445 95.8159 45.6339 94.7231 44.2458Z" fill="#FF9900"/>
<path d="M84.9574 18.7477V15.4392C84.9574 14.9385 85.3409 14.6025 85.8011 14.6025H100.737C101.217 14.6025 101.6 14.9448 101.6 15.4392V18.2723C101.594 18.7477 101.191 19.3688 100.475 20.3512L92.7355 31.3099C95.6115 31.2402 98.6473 31.6648 101.255 33.1226C101.843 33.4522 102.003 33.9339 102.047 34.4092V37.9396C102.047 38.4213 101.511 38.9854 100.948 38.6938C96.3529 36.3043 90.2493 36.0445 85.1684 38.7192C84.6507 38.998 84.1074 38.4403 84.1074 37.9586V34.6057C84.1074 34.067 84.1138 33.1479 84.6571 32.3303L93.6239 19.578H85.8203C85.3409 19.578 84.9574 19.2421 84.9574 18.7477Z" fill="#221F1F"/>
<path d="M30.473 39.3908H25.9289C25.4943 39.3592 25.1491 39.0359 25.1172 38.6239V15.4961C25.1172 15.0334 25.507 14.6658 25.9928 14.6658H30.2301C30.6711 14.6848 31.0226 15.0207 31.0546 15.439V18.4623H31.1377C32.2433 15.5404 34.3205 14.1777 37.1198 14.1777C39.9639 14.1777 41.7406 15.5404 43.0189 18.4623C44.1181 15.5404 46.6171 14.1777 49.295 14.1777C51.1996 14.1777 53.2831 14.9573 54.5549 16.7067C55.9929 18.6525 55.6989 21.4793 55.6989 23.9575L55.6926 38.5542C55.6926 39.0169 55.3027 39.3908 54.817 39.3908H50.2792C49.8255 39.3592 49.4612 38.9979 49.4612 38.5542V26.2963C49.4612 25.3202 49.5506 22.8863 49.3333 21.961C48.9946 20.4081 47.9784 19.9708 46.6618 19.9708C45.5625 19.9708 44.4121 20.6997 43.9456 21.8659C43.479 23.0321 43.5238 24.9843 43.5238 26.2963V38.5542C43.5238 39.0169 43.1339 39.3908 42.6482 39.3908H38.1104C37.6503 39.3592 37.2924 38.9979 37.2924 38.5542L37.286 26.2963C37.286 23.7166 37.7142 19.9201 34.4866 19.9201C31.2208 19.9201 31.3486 23.6216 31.3486 26.2963V38.5542C31.3486 39.0169 30.9587 39.3908 30.473 39.3908Z" fill="#221F1F"/>
<path d="M114.458 14.1777C121.201 14.1777 124.85 19.9201 124.85 27.2216C124.85 34.276 120.818 39.8725 114.458 39.8725C107.837 39.8725 104.232 34.1302 104.232 26.9744C104.232 19.7743 107.882 14.1777 114.458 14.1777ZM114.497 18.8996C111.148 18.8996 110.937 23.4251 110.937 26.2456C110.937 29.0724 110.892 35.1063 114.458 35.1063C117.98 35.1063 118.146 30.2386 118.146 27.2723C118.146 25.3202 118.063 22.9877 117.469 21.137C116.957 19.5271 115.941 18.8996 114.497 18.8996Z" fill="#221F1F"/>
<path d="M133.594 39.3908H129.069C128.615 39.3592 128.251 38.9979 128.251 38.5542L128.244 15.42C128.282 14.9954 128.66 14.6658 129.12 14.6658H133.332C133.728 14.6848 134.054 14.951 134.143 15.3123V18.8489H134.226C135.498 15.6862 137.281 14.1777 140.419 14.1777C142.458 14.1777 144.446 14.9066 145.724 16.9031C146.913 18.7539 146.913 21.8659 146.913 24.1033V38.662C146.862 39.0676 146.485 39.3908 146.037 39.3908H141.48C141.065 39.3592 140.72 39.0549 140.675 38.662V26.0998C140.675 23.5709 140.969 19.8694 137.831 19.8694C136.725 19.8694 135.709 20.6046 135.204 21.7201C134.565 23.1335 134.482 24.5406 134.482 26.0998V38.5542C134.476 39.0169 134.079 39.3908 133.594 39.3908Z" fill="#221F1F"/>
<path d="M73.0497 28.3436V27.3676C69.7646 27.3676 66.2942 28.0648 66.2942 31.9057C66.2942 33.8515 67.3104 35.1698 69.0552 35.1698C70.3334 35.1698 71.4774 34.3902 72.1996 33.1226C73.0944 31.5634 73.0497 30.0993 73.0497 28.3436ZM77.6321 39.3276C77.3317 39.5938 76.8971 39.6128 76.5584 39.4354C75.0501 38.1931 74.7817 37.6163 73.9508 36.4311C71.4583 38.9537 69.6943 39.7079 66.4604 39.7079C62.6384 39.7079 59.6602 37.3691 59.6602 32.6853C59.6602 29.0282 61.6606 26.5373 64.5047 25.3203C66.9717 24.2429 70.4165 24.0527 73.0497 23.7548V23.1717C73.0497 22.1006 73.1327 20.8329 72.5 19.9076C71.944 19.0773 70.8831 18.735 69.9499 18.735C68.2179 18.735 66.6713 19.616 66.2942 21.4414C66.2175 21.847 65.9171 22.2463 65.5081 22.2654L61.0982 21.7963C60.7275 21.7139 60.3184 21.416 60.4207 20.852C61.4369 15.5533 66.2622 13.9561 70.5827 13.9561C72.794 13.9561 75.6828 14.5392 77.4276 16.1998C79.639 18.247 79.428 20.9787 79.428 23.9513V30.974C79.428 33.0846 80.31 34.0099 81.1409 35.1508C81.4349 35.5564 81.4988 36.0445 81.1281 36.3487C80.2014 37.1156 78.5525 38.5417 77.6449 39.3403L77.6321 39.3276Z" fill="#221F1F"/>
<path d="M13.4784 28.3436V27.3676C10.1933 27.3676 6.7229 28.0648 6.7229 31.9057C6.7229 33.8515 7.7391 35.1698 9.48389 35.1698C10.7621 35.1698 11.9061 34.3902 12.6283 33.1226C13.5231 31.5634 13.4784 30.0993 13.4784 28.3436ZM18.0608 39.3276C17.7605 39.5938 17.3259 39.6128 16.9871 39.4354C15.4788 38.1931 15.2104 37.6163 14.3795 36.4311C11.887 38.9537 10.123 39.7079 6.88907 39.7079C3.06715 39.7079 0.0888672 37.3691 0.0888672 32.6853C0.0888672 29.0282 2.0893 26.5373 4.93337 25.3203C7.40036 24.2429 10.8452 24.0527 13.4784 23.7548V23.1717C13.4784 22.1006 13.5615 20.8329 12.9287 19.9076C12.3727 19.0773 11.3118 18.735 10.3786 18.735C8.64665 18.735 7.09998 19.616 6.7229 21.4414C6.64621 21.847 6.34582 22.2463 5.93679 22.2654L1.52688 21.7963C1.15619 21.7139 0.747157 21.416 0.849415 20.852C1.86561 15.5533 6.69094 13.9561 11.0114 13.9561C13.2227 13.9561 16.1115 14.5392 17.8563 16.1998C20.0677 18.247 19.8568 20.9787 19.8568 23.9513V30.974C19.8568 33.0846 20.7387 34.0099 21.5696 35.1508C21.8636 35.5564 21.9275 36.0445 21.5568 36.3487C20.6301 37.1156 18.9812 38.5417 18.0736 39.3403L18.0608 39.3276Z" fill="#221F1F"/>
</g>
<path d="M187.598 45.9482L198.576 29.9102L187.884 14.2682H191.8L200.49 27.2042L209.18 14.2682H213.118L202.426 29.9102L213.382 45.9482H209.466L200.49 32.6382L191.536 45.9482H187.598Z" fill="#1A4855"/>
<g clip-path="url(#clip1_45_705)">
<mask id="mask0_45_705" style="mask-type:luminance" maskUnits="userSpaceOnUse" x="254" y="7" width="168" height="44">
<path d="M421.225 7.896H254.777V50.7312H421.225V7.896Z" fill="white"/>
</mask>
<g mask="url(#mask0_45_705)">
<path d="M273.594 43.2754H273.729V22.5773C273.729 19.6404 271.341 17.2493 268.402 17.2493C265.464 17.2493 263.076 19.6386 263.076 22.5773V43.2754H264.327V22.5773C264.327 20.3276 266.156 18.5003 268.402 18.5003C270.648 18.5003 272.478 20.3294 272.478 22.5773V43.2754H273.594Z" fill="#A67638" stroke="#A67638" stroke-width="0.268459"/>
<path d="M277.887 46.4036V21.6447V21.5104C277.887 16.2773 273.633 12.0195 268.401 12.0195C263.17 12.0195 258.914 16.2773 258.914 21.5104V46.5379H260.165V21.5104C260.165 16.9681 263.859 13.2705 268.4 13.2705C272.94 13.2705 276.634 16.9681 276.634 21.5104V46.5379H277.885V46.4036H277.887Z" fill="#A67638" stroke="#A67638" stroke-width="0.268459"/>
<path d="M281.895 50.463V21.6644V21.5302C281.897 14.0867 275.844 8.03027 268.404 8.03027C260.964 8.03027 254.911 14.0867 254.911 21.5302V50.5973H256.162V21.5302C256.162 14.7775 261.653 9.28308 268.404 9.28308C275.155 9.28308 280.644 14.7775 280.644 21.5302V50.5973H281.895V50.463Z" fill="#A67638" stroke="#A67638" stroke-width="0.268459"/>
<path d="M325.092 44.503V14.1243H327.517V28.1324H345.105V14.1243H347.551V44.505H345.105V30.4967H327.517V44.505H325.092V44.503Z" fill="#1A4855"/>
<path d="M358.936 44.503V14.1243H361.193L373.635 41.0006L385.948 14.1243H388.289V44.4619H385.905V19.7154L374.603 44.505H372.622L361.298 19.7154V44.505H358.936V44.503Z" fill="#1A4855"/>
<path d="M399.675 44.503V14.1243H411.126C411.421 14.1243 411.739 14.135 412.085 14.1565C412.43 14.1779 412.792 14.2227 413.171 14.2943C414.689 14.5341 415.993 15.0782 417.082 15.9283C418.171 16.7784 419.004 17.8487 419.58 19.1355C420.157 20.4223 420.445 21.8398 420.445 23.3861C420.445 25.6232 419.847 27.5705 418.651 29.2295C417.456 30.8904 415.791 31.9446 413.654 32.3938L412.958 32.6676H402.098V44.503H399.673H399.675ZM402.1 30.2837H411.083C411.336 30.2837 411.627 30.2694 411.958 30.2425C412.289 30.2139 412.622 30.1727 412.96 30.1155C414.057 29.89 414.97 29.4443 415.702 28.7767C416.432 28.1092 416.981 27.3038 417.347 26.3606C417.712 25.4192 417.896 24.4259 417.896 23.3861C417.896 22.3462 417.714 21.3583 417.347 20.4223C416.981 19.4863 416.434 18.6863 415.702 18.0169C414.97 17.3493 414.057 16.9019 412.96 16.6782C412.623 16.6084 412.289 16.5583 411.958 16.5296C411.627 16.501 411.335 16.4867 411.083 16.4867H402.1V30.2837ZM418.379 44.503L412.391 32.1396L414.646 31.0014L421.225 44.503H418.379Z" fill="#1A4855"/>
<path d="M315.837 44.4745L315.769 44.4961H313.215L304.132 15.9534C303.978 15.4702 303.57 15.4165 303.398 15.4165H303.394C303.225 15.4165 302.813 15.472 302.663 15.9588L293.871 44.4961H291.287L291.253 44.4851L300.268 15.2214C300.699 13.8255 301.922 12.9181 303.382 12.9109H303.4C304.853 12.9109 306.077 13.8058 306.519 15.1928L315.837 44.4745Z" fill="#1A4855"/>
</g>
</g>
<defs>
<clipPath id="clip0_45_705">
<rect width="147" height="57" fill="white" transform="translate(0 0.948242)"/>
</clipPath>
<clipPath id="clip1_45_705">
<rect width="166.448" height="43.1041" fill="white" transform="translate(254.776 7.89624)"/>
</clipPath>
</defs>
</svg>
